<?xml version="1.0" encoding="UTF-8"?>
<svg width="1384px" height="778px" viewBox="0 0 1384 778" version="1.1" xmlns="http://www.w3.org/2000/svg" xmlns:xlink="http://www.w3.org/1999/xlink">
    <!-- Generator: Sketch 53.2 (72643) - https://sketchapp.com -->
    <title>logo-black-3comp</title>
    <desc>Created with Sketch.</desc>
    <g id="logo-black-3comp" stroke="none" stroke-width="1" fill="none" fill-rule="evenodd">
        <g id="logo" transform="translate(-5.000000, 0.000000)" fill="#090909">
            <path d="M62.5000191,779 C51.6999651,779 41.2667361,777.466682 31.2000191,774.4 C21.1333021,771.333318 13.1667151,767.266692 7.30001907,762.2 L16.3000191,742 C22.0333811,746.533356 29.0666441,750.233319 37.4000191,753.1 C45.7333941,755.966681 54.0999771,757.4 62.5000191,757.4 C72.9000711,757.4 80.6666601,755.73335 85.8000191,752.4 C90.9333781,749.06665 93.5000191,744.666694 93.5000191,739.2 C93.5000191,735.19998 92.0667001,731.900013 89.2000191,729.3 C86.3333381,726.699987 82.7000411,724.666674 78.3000191,723.2 C73.8999971,721.733326 67.9000571,720.066676 60.3000191,718.2 C49.6332991,715.666654 41.0000521,713.133346 34.4000191,710.6 C27.7999861,708.066654 22.1333761,704.100027 17.4000191,698.7 C12.6666621,693.299973 10.3000191,686.000046 10.3000191,676.8 C10.3000191,669.066628 12.3999981,662.033365 16.6000191,655.7 C20.8000401,649.366635 27.1333101,644.333352 35.6000191,640.6 C44.0667281,636.866648 54.4332911,635 66.7000191,635 C75.2333951,635 83.6333111,636.066656 91.9000191,638.2 C100.166727,640.333344 107.299989,643.39998 113.300019,647.4 L105.100019,667.6 C98.9666551,663.999982 92.5667191,661.266676 85.9000191,659.4 C79.2333191,657.533324 72.7667171,656.6 66.5000191,656.6 C56.2333011,656.6 48.6000441,658.333316 43.6000191,661.8 C38.5999941,665.266684 36.1000191,669.866638 36.1000191,675.6 C36.1000191,679.60002 37.5333381,682.866654 40.4000191,685.4 C43.2667001,687.933346 46.8999971,689.933326 51.3000191,691.4 C55.7000411,692.866674 61.6999811,694.533324 69.3000191,696.4 C79.7000711,698.800012 88.2333191,701.299987 94.9000191,703.9 C101.566719,706.500013 107.266662,710.46664 112.000019,715.8 C116.733376,721.13336 119.100019,728.333288 119.100019,737.4 C119.100019,745.133372 117.00004,752.133302 112.800019,758.4 C108.599998,764.666698 102.233395,769.666648 93.7000191,773.4 C85.1666431,777.133352 74.7667471,779 62.5000191,779 Z M196.300015,659 L149.900015,659 L149.900015,637 L268.700015,637 L268.700015,659 L222.300015,659 L222.300015,777 L196.300015,777 L196.300015,659 Z M418.300011,755.2 L418.300011,777 L313.300011,777 L313.300011,637 L415.500011,637 L415.500011,658.8 L339.300011,658.8 L339.300011,695.2 L406.900011,695.2 L406.900011,716.6 L339.300011,716.6 L339.300011,755.2 L418.300011,755.2 Z M577.300008,755.2 L577.300008,777 L472.300008,777 L472.300008,637 L574.500008,637 L574.500008,658.8 L498.300008,658.8 L498.300008,695.2 L565.900008,695.2 L565.900008,716.6 L498.300008,716.6 L498.300008,755.2 L577.300008,755.2 Z M631.300004,637 L657.300004,637 L657.300004,755 L730.500004,755 L730.500004,777 L631.300004,777 L631.300004,637 Z M904.499996,718.4 L882.299996,741.2 L882.299996,777 L856.299996,777 L856.299996,637 L882.299996,637 L882.299996,708.8 L951.499996,637 L980.699996,637 L921.899996,699.6 L984.299996,777 L953.899996,777 L904.499996,718.4 Z M1027.09999,637 L1053.09999,637 L1053.09999,777 L1027.09999,777 L1027.09999,637 Z M1319.49999,637 L1273.09999,777 L1245.49999,777 L1210.89999,673.4 L1175.69999,777 L1147.89999,777 L1101.49999,637 L1128.49999,637 L1163.29999,743.4 L1199.49999,637 L1223.49999,637 L1258.89999,744 L1294.69999,637 L1319.49999,637 Z M1365.69998,637 L1391.69998,637 L1391.69998,777 L1365.69998,777 L1365.69998,637 Z" id="STEEL-KIWI"></path>
            <g id="symbol" transform="translate(335.000000, 0.000000)">
                <path d="M340.693532,375.053333 L340.693532,271.897238 C340.693532,261.798809 345.17903,252.222085 352.936858,245.757229 L646.933532,0.76 L766.026866,0.76 L562.362744,179.984427 L766.026866,511.16 L663.946866,511.16 L492.189582,241.73681 L425.760199,300.194667 L425.760199,443.106667 C425.760199,480.691485 395.291684,511.16 357.706866,511.16 L0.426865672,511.16 L0.426865672,426.093333 L306.666866,426.093333 C325.459275,426.093333 340.693532,410.859076 340.693532,392.066667 L340.693532,375.053333 Z" id="Combined-Shape"></path>
                <path d="M425.760199,1.88666667 L70.6068657,1.88666667 C33.0220475,1.88666667 2.55353234,32.3551818 2.55353234,69.94 L2.55353234,257.086667 L87.620199,257.086667 L87.620199,118.853333 C87.620199,100.060924 102.854457,84.8266667 121.646866,84.8266667 L425.760199,84.8266667 L425.760199,1.88666667 Z" id="Path-4"></path>
            </g>
        </g>
    </g>
</svg>