<?xml version="1.0" encoding="utf-8"?>
<!-- Generator: Adobe Illustrator 23.0.3, SVG Export Plug-In . SVG Version: 6.00 Build 0)  -->
<svg version="1.1" id="Слой_1" xmlns="http://www.w3.org/2000/svg" xmlns:xlink="http://www.w3.org/1999/xlink" x="0px" y="0px"
	 viewBox="0 0 757.1 297.6" style="enable-background:new 0 0 757.1 297.6;" xml:space="preserve">
<style type="text/css">
	.st0{fill:#848484;}
	.st1{fill:#ED1C24;}
</style>
<g>
	<g>
		<path class="st0" d="M128.2,188.4c0,0.8,0,1.5-0.1,2.1c-0.1,0.6-0.2,1.1-0.5,1.5c-0.2,0.4-0.5,0.7-0.8,0.9s-0.6,0.3-1,0.3H77.3
			c-1,0-2-0.3-2.9-1s-1.4-1.9-1.4-3.7v-78c0-1.8,0.5-3,1.4-3.7s1.9-1,2.9-1h49c0.4,0,0.7,0.1,1,0.3c0.3,0.2,0.5,0.5,0.7,0.9
			s0.3,0.9,0.4,1.5c0.1,0.6,0.2,1.4,0.2,2.3c0,0.8-0.1,1.5-0.2,2.1c-0.1,0.6-0.3,1.1-0.4,1.5c-0.2,0.4-0.4,0.7-0.7,0.8
			c-0.3,0.2-0.6,0.3-1,0.3H84.6V143H114c0.4,0,0.7,0.1,1,0.3s0.5,0.5,0.7,0.8c0.2,0.4,0.3,0.9,0.4,1.5s0.1,1.4,0.1,2.2
			s0,1.5-0.1,2.1s-0.2,1.1-0.4,1.4c-0.2,0.4-0.5,0.6-0.7,0.8c-0.3,0.2-0.6,0.2-1,0.2H84.6v31.3h41.2c0.4,0,0.7,0.1,1,0.3
			s0.6,0.5,0.8,0.8c0.2,0.4,0.4,0.9,0.5,1.5C128.2,186.8,128.2,187.5,128.2,188.4z"/>
		<path class="st0" d="M579.6,188.4c0,0.8,0,1.5-0.1,2.1s-0.2,1.1-0.5,1.5c-0.2,0.4-0.5,0.7-0.8,0.9s-0.6,0.3-1,0.3h-48.5
			c-1,0-2-0.3-2.9-1s-1.4-1.9-1.4-3.7v-78c0-1.8,0.5-3,1.4-3.7s1.9-1,2.9-1h49c0.4,0,0.7,0.1,1,0.3c0.3,0.2,0.5,0.5,0.7,0.9
			s0.3,0.9,0.4,1.5c0.1,0.6,0.2,1.4,0.2,2.3c0,0.8-0.1,1.5-0.2,2.1c-0.1,0.6-0.3,1.1-0.4,1.5c-0.2,0.4-0.4,0.7-0.7,0.8
			c-0.3,0.2-0.6,0.3-1,0.3H536V143h29.3c0.4,0,0.7,0.1,1,0.3s0.5,0.5,0.7,0.8c0.2,0.4,0.3,0.9,0.4,1.5c0.1,0.6,0.1,1.4,0.1,2.2
			s0,1.5-0.1,2.1s-0.2,1.1-0.4,1.4c-0.2,0.4-0.5,0.6-0.7,0.8c-0.3,0.2-0.6,0.2-1,0.2H536v31.3h41.2c0.4,0,0.7,0.1,1,0.3
			s0.6,0.5,0.8,0.8c0.2,0.4,0.4,0.9,0.5,1.5C579.5,186.8,579.6,187.5,579.6,188.4z"/>
		<path class="st0" d="M286.9,191.1c0,0.4-0.1,0.7-0.3,0.9c-0.2,0.3-0.5,0.5-0.9,0.6c-0.5,0.2-1,0.3-1.8,0.4
			c-0.7,0.1-1.7,0.2-2.8,0.2c-1.1,0-2-0.1-2.8-0.2c-0.8-0.1-1.4-0.2-1.8-0.4s-0.8-0.4-0.9-0.6c-0.2-0.3-0.3-0.6-0.3-0.9v-84
			c0-0.4,0.1-0.7,0.3-0.9c0.2-0.3,0.5-0.5,1-0.6c0.5-0.2,1.1-0.3,1.8-0.4c0.7-0.1,1.6-0.2,2.7-0.2s2.1,0.1,2.8,0.2
			c0.7,0.1,1.3,0.2,1.8,0.4c0.5,0.2,0.8,0.4,0.9,0.6c0.2,0.3,0.3,0.6,0.3,0.9L286.9,191.1L286.9,191.1z"/>
		<path class="st0" d="M628.4,191.1c0,0.4-0.1,0.7-0.3,0.9c-0.2,0.3-0.5,0.5-0.9,0.6s-1,0.3-1.8,0.4c-0.7,0.1-1.7,0.2-2.8,0.2
			s-2-0.1-2.8-0.2c-0.8-0.1-1.4-0.2-1.8-0.4s-0.8-0.4-0.9-0.6c-0.2-0.3-0.3-0.6-0.3-0.9v-84c0-0.4,0.1-0.7,0.3-0.9
			c0.2-0.3,0.5-0.5,1-0.6c0.5-0.2,1.1-0.3,1.8-0.4s1.6-0.2,2.7-0.2c1.1,0,2.1,0.1,2.8,0.2s1.3,0.2,1.8,0.4s0.8,0.4,0.9,0.6
			c0.2,0.3,0.3,0.6,0.3,0.9V191.1z"/>
		<path class="st0" d="M624.6,159.1c-0.3,0.2-0.6,0.3-0.9,0.4c-0.3,0-0.7-0.1-1.1-0.3c-0.4-0.3-0.9-0.6-1.4-1.2
			c-0.5-0.5-1.2-1.2-1.9-2.1c-0.7-0.8-1.2-1.6-1.6-2.3c-0.4-0.7-0.7-1.2-0.8-1.7c-0.2-0.5-0.2-0.8-0.1-1.1c0.1-0.3,0.3-0.6,0.6-0.8
			l58-46.5c0.3-0.2,0.6-0.3,0.9-0.3c0.3,0,0.7,0.1,1.1,0.4c0.4,0.3,0.9,0.7,1.5,1.2s1.1,1.2,1.8,2c0.7,0.9,1.2,1.7,1.6,2.3
			s0.6,1.2,0.8,1.7s0.2,0.8,0.1,1.1c-0.1,0.3-0.3,0.6-0.6,0.8L624.6,159.1z"/>
		<path class="st0" d="M635.1,138.7c-0.2-0.3-0.3-0.6-0.3-0.9c0-0.3,0.1-0.7,0.4-1.1s0.7-0.8,1.2-1.4c0.5-0.5,1.3-1.1,2.2-1.8
			c0.8-0.6,1.6-1.1,2.3-1.4c0.7-0.3,1.2-0.6,1.7-0.7c0.5-0.1,0.9-0.2,1.2-0.1c0.3,0.1,0.6,0.3,0.8,0.6l38.3,55
			c0.2,0.3,0.3,0.6,0.3,0.9c0,0.3-0.1,0.7-0.4,1.1c-0.3,0.4-0.7,0.9-1.2,1.4c-0.6,0.5-1.3,1.1-2.2,1.8s-1.7,1.2-2.4,1.5
			s-1.2,0.6-1.7,0.7s-0.8,0.1-1.1,0s-0.6-0.3-0.8-0.6L635.1,138.7z"/>
		<path class="st1" d="M463,191.1c0,0.4-0.1,0.7-0.3,0.9c-0.2,0.3-0.5,0.5-0.9,0.6s-1,0.3-1.8,0.4c-0.7,0.1-1.7,0.2-2.8,0.2
			c-1.1,0-2-0.1-2.8-0.2c-0.8-0.1-1.4-0.2-1.8-0.4s-0.8-0.4-0.9-0.6c-0.2-0.3-0.3-0.6-0.3-0.9V89.3c0-0.4,0.1-0.7,0.3-0.9
			c0.2-0.3,0.5-0.5,1-0.6c0.5-0.2,1.1-0.3,1.8-0.4s1.6-0.2,2.7-0.2s2.1,0.1,2.8,0.2c0.7,0.1,1.3,0.2,1.8,0.4
			c0.5,0.2,0.8,0.4,0.9,0.6c0.2,0.3,0.3,0.6,0.3,0.9L463,191.1L463,191.1z"/>
		<path class="st1" d="M681.9,83.4c0.4,0,0.7,0.1,0.9,0.3c0.3,0.2,0.5,0.5,0.6,0.9c0.2,0.5,0.3,1,0.4,1.8c0.1,0.7,0.2,1.7,0.2,2.8
			c0,1.1-0.1,2-0.2,2.8c-0.1,0.8-0.2,1.4-0.4,1.8c-0.2,0.5-0.4,0.8-0.6,0.9c-0.3,0.2-0.6,0.3-0.9,0.3H307.1c-0.4,0-0.7-0.1-0.9-0.3
			c-0.3-0.2-0.5-0.5-0.6-1c-0.2-0.5-0.3-1.1-0.4-1.8c-0.1-0.7-0.2-1.6-0.2-2.7s0.1-2.1,0.2-2.8s0.2-1.3,0.4-1.8
			c0.2-0.5,0.4-0.8,0.6-0.9c0.3-0.2,0.6-0.3,0.9-0.3C307.1,83.4,681.9,83.4,681.9,83.4z"/>
		<path class="st1" d="M151.1,204.5c0.4,0,0.7,0.1,0.9,0.3c0.3,0.2,0.5,0.5,0.6,0.9c0.2,0.5,0.3,1,0.4,1.8c0.1,0.7,0.2,1.7,0.2,2.8
			s-0.1,2-0.2,2.8c-0.1,0.8-0.2,1.4-0.4,1.8c-0.2,0.5-0.4,0.8-0.6,0.9c-0.3,0.2-0.6,0.3-0.9,0.3H75.5c-0.4,0-0.7-0.1-0.9-0.3
			c-0.3-0.2-0.5-0.5-0.6-1c-0.2-0.5-0.3-1.1-0.4-1.8s-0.2-1.6-0.2-2.7c0-1.1,0.1-2.1,0.2-2.8s0.2-1.3,0.4-1.8s0.4-0.8,0.6-0.9
			c0.3-0.2,0.6-0.3,0.9-0.3H151.1z"/>
		<path class="st0" d="M240.5,186c0.2,0.3,0.4,0.6,0.4,0.9c0,0.3-0.1,0.7-0.3,1.1s-0.6,0.9-1.1,1.5s-1.2,1.2-2,1.9s-1.6,1.2-2.2,1.6
			c-0.7,0.4-1.2,0.7-1.7,0.9s-0.8,0.2-1.1,0.1c-0.3-0.1-0.6-0.3-0.8-0.6l-68.4-81.8c-0.2-0.3-0.4-0.6-0.4-0.9s0.1-0.7,0.4-1.1
			c0.3-0.4,0.6-0.9,1.1-1.5s1.1-1.2,1.9-1.8c0.9-0.7,1.6-1.3,2.3-1.7c0.6-0.4,1.2-0.7,1.6-0.8c0.4-0.2,0.8-0.2,1.1-0.1
			s0.6,0.3,0.8,0.6L240.5,186z"/>
		<path class="st1" d="M249.8,83.6c0.2-0.3,0.5-0.5,0.8-0.6s0.7-0.1,1.1,0.1c0.4,0.2,1,0.4,1.6,0.8s1.4,0.9,2.3,1.7
			c0.8,0.7,1.4,1.3,1.9,1.8c0.5,0.6,0.9,1.1,1.1,1.5c0.3,0.4,0.4,0.8,0.4,1.1c0,0.3-0.1,0.6-0.4,0.9L152.5,215.5
			c-0.2,0.3-0.5,0.5-0.8,0.6s-0.7,0.1-1.1-0.1s-1-0.5-1.7-0.9s-1.4-1-2.2-1.6c-0.9-0.7-1.5-1.4-2-1.9c-0.5-0.6-0.9-1-1.1-1.5
			c-0.2-0.4-0.4-0.8-0.3-1.1c0-0.3,0.2-0.6,0.4-0.9L249.8,83.6z"/>
		<path class="st1" d="M286.9,94.8c0,0.4-0.1,0.7-0.3,0.9c-0.2,0.3-0.5,0.5-0.9,0.6c-0.5,0.2-1,0.3-1.8,0.4
			c-0.7,0.1-1.7,0.2-2.8,0.2c-1.1,0-2-0.1-2.8-0.2s-1.4-0.2-1.8-0.4s-0.8-0.4-0.9-0.6c-0.2-0.3-0.3-0.6-0.3-0.9v-11
			c0-0.4,0.1-0.7,0.3-0.9c0.2-0.3,0.5-0.5,1-0.6c0.5-0.2,1.1-0.3,1.8-0.4s1.6-0.2,2.7-0.2s2.1,0.1,2.8,0.2c0.7,0.1,1.3,0.2,1.8,0.4
			c0.5,0.2,0.8,0.4,0.9,0.6c0.2,0.3,0.3,0.6,0.3,0.9L286.9,94.8L286.9,94.8z"/>
		<path class="st0" d="M389,168.7c0,4.1-0.9,7.8-2.8,11s-4.5,5.9-7.8,8.1c-3.3,2.2-7.2,3.9-11.7,5s-9.3,1.7-14.5,1.7
			c-3.6,0-7-0.2-10.1-0.7s-5.8-1.1-8.3-1.8c-2.4-0.7-4.5-1.5-6.1-2.2c-1.6-0.8-2.8-1.4-3.4-2c-0.6-0.5-1.1-1.2-1.4-2.1
			c-0.3-0.8-0.5-1.9-0.5-3.3c0-1,0.1-1.8,0.2-2.5s0.3-1.2,0.5-1.6c0.2-0.4,0.5-0.7,0.8-0.8c0.3-0.2,0.7-0.2,1.2-0.2
			c0.8,0,1.9,0.4,3.3,1.1c1.4,0.8,3.2,1.6,5.5,2.5c2.2,0.9,4.9,1.7,8.1,2.5c3.1,0.8,6.8,1.2,10.9,1.2c3.1,0,6-0.3,8.6-1
			s4.8-1.6,6.7-2.9c1.9-1.2,3.3-2.8,4.3-4.6s1.5-3.9,1.5-6.2c0-2.5-0.7-4.6-2.1-6.4c-1.4-1.8-3.2-3.3-5.5-4.6s-4.9-2.5-7.8-3.7
			c-2.9-1.1-5.9-2.2-9-3.4s-6-2.4-8.9-3.8c-2.9-1.4-5.5-3-7.8-4.9s-4.1-4.1-5.6-6.7s-2.1-5.6-2.1-9.2c0-3.7,0.8-6.9,2.5-9.8
			c1.6-2.9,3.9-5.3,6.8-7.2c2.9-1.9,6.4-3.4,10.4-4.4s8.4-1.5,13.1-1.5c2.4,0,4.8,0.2,7.2,0.5c2.4,0.3,4.7,0.8,6.8,1.4
			s4.1,1.2,5.7,1.9c1.7,0.7,2.8,1.3,3.3,1.7c0.5,0.4,0.9,0.8,1,1c0.2,0.2,0.3,0.6,0.4,0.9c0.1,0.4,0.2,0.8,0.3,1.4
			c0.1,0.5,0.1,1.2,0.1,2.1c0,0.8,0,1.5-0.1,2.2c-0.1,0.6-0.2,1.2-0.4,1.6c-0.2,0.4-0.4,0.7-0.7,0.9c-0.3,0.2-0.7,0.3-1,0.3
			c-0.6,0-1.6-0.3-2.9-0.9s-2.9-1.3-4.8-2.1c-1.9-0.8-4.1-1.5-6.7-2.2s-5.5-1-8.7-1c-3,0-5.6,0.3-7.8,1c-2.2,0.7-4.1,1.5-5.5,2.6
			s-2.5,2.4-3.3,3.9c-0.7,1.5-1.1,3.1-1.1,4.7c0,2.4,0.7,4.5,2.1,6.3s3.2,3.3,5.6,4.7c2.3,1.4,4.9,2.6,7.9,3.7c3,1.1,6,2.3,9,3.4
			c3.1,1.2,6.1,2.4,9,3.8c3,1.4,5.6,3,7.9,4.9s4.2,4.1,5.6,6.6C388.3,162.2,389,165.2,389,168.7z"/>
	</g>
	<path class="st0" d="M716.9,49.4v198.8H40.2V49.4H716.9 M723.5,42.8H33.6v212h689.9V42.8L723.5,42.8z"/>
</g>
</svg>
