<svg width="130" height="96" viewBox="0 0 130 96" fill="none" xmlns="http://www.w3.org/2000/svg">
<path d="M124.189 70.3541L116.324 68.107C115.984 68.0101 115.747 67.6957 115.747 67.3425V64.7174C116.387 64.2741 116.997 63.7779 117.568 63.2242C120.333 60.5409 121.856 56.9418 121.856 53.0895V49.467L122.616 47.9464C123.451 46.277 123.892 44.408 123.892 42.5417V32.7283C123.892 31.6766 123.039 30.824 121.987 30.824H103.662C96.9988 30.824 91.5774 36.2454 91.5774 42.9089V43.0224C91.5774 44.5743 91.9443 46.1284 92.6382 47.5163L93.6135 49.4668V52.5771C93.6135 57.5065 96.0426 61.9293 99.7219 64.5907L99.7224 67.342C99.7224 67.7663 99.7224 67.942 98.15 68.3914L94.3125 69.4878L83.2114 65.4512C83.2513 64.9274 83.0746 64.3947 82.6924 63.9933L79.1451 60.2664V54.0102C79.5201 53.7012 79.8898 53.3838 80.2481 53.0481C84.7232 48.8536 87.2897 42.9315 87.2897 36.8004V31.804C88.641 28.8636 89.3257 25.7519 89.3257 22.5474V2.18665C89.3257 1.13497 88.4731 0.282349 87.4214 0.282349H58.9156C48.8838 0.282349 40.7225 8.44391 40.7225 18.4755V22.5479C40.7225 25.7524 41.4073 28.8641 42.7586 31.8046V36.1034C42.7586 43.222 45.9238 49.6351 50.9031 53.8632V60.2667L47.3558 63.9935C46.9737 64.3949 46.797 64.9276 46.8368 65.4514L35.1203 69.7117C34.2713 70.0205 33.4824 70.4387 32.7661 70.9452L30.9263 70.0253C36.403 67.6414 38.138 64.2886 38.2213 64.122C38.4894 63.586 38.4894 62.9548 38.2213 62.4188C36.8484 59.673 36.6821 54.6404 36.5485 50.5967C36.5041 49.2504 36.462 47.9786 36.3815 46.8462C35.7322 37.7122 28.7884 30.824 20.2292 30.824C11.67 30.824 4.72596 37.7119 4.07697 46.8462C3.99648 47.9789 3.95434 49.2507 3.9099 50.5972C3.77635 54.6406 3.60979 59.6728 2.23717 62.4185C1.96904 62.9545 1.96904 63.5857 2.23717 64.1217C2.32045 64.2883 4.05184 67.6343 9.53951 70.021L4.42914 72.576C1.69711 73.9431 0 76.6891 0 79.7433V93.812C0 94.8637 0.852617 95.7163 1.9043 95.7163C2.95598 95.7163 3.80859 94.8637 3.80859 93.812V79.7433C3.80859 78.1407 4.69904 76.6997 6.13234 75.983L12.496 72.8013L14.7096 74.9049C16.2574 76.3758 18.2429 77.1108 20.2292 77.1108C22.215 77.1108 24.2016 76.3752 25.7489 74.9049L27.9622 72.8015L30.0371 73.839C29.0601 75.4023 28.5055 77.2355 28.5055 79.1558V93.8125C28.5055 94.8642 29.3582 95.7168 30.4098 95.7168C31.4615 95.7168 32.3141 94.8642 32.3141 93.8125V79.1558C32.3141 76.5416 33.9648 74.1848 36.4218 73.2913L48.7749 68.7994L53.9172 76.5134C54.5746 77.4995 55.6281 78.132 56.8075 78.2488C56.939 78.2618 57.0697 78.2681 57.2003 78.2681C58.2408 78.2681 59.2373 77.8586 59.9823 77.1139L63.1196 73.9766V93.8128C63.1196 94.8644 63.9722 95.7171 65.0239 95.7171C66.0755 95.7171 66.9282 94.8644 66.9282 93.8128V73.9766L70.0654 77.1139C70.8101 77.8588 71.8067 78.2684 72.8475 78.2684C72.9777 78.2684 73.1087 78.262 73.24 78.2491C74.4197 78.1323 75.4731 77.4998 76.1305 76.5136L81.2731 68.8L93.6259 73.2918C96.0827 74.1853 97.7336 76.5421 97.7336 79.1563V93.813C97.7336 94.8647 98.5862 95.7173 99.6379 95.7173C100.69 95.7173 101.542 94.8647 101.542 93.813V79.1563C101.542 76.5086 100.49 74.0253 98.7256 72.1888L99.1961 72.0545C99.6706 71.9189 100.318 71.7333 100.968 71.4147L105.83 76.2767V93.813C105.83 94.8647 106.683 95.7173 107.734 95.7173C108.786 95.7173 109.639 94.8647 109.639 93.813V76.2767L114.467 71.4485C114.724 71.579 114.993 71.6892 115.277 71.7702L123.142 74.0172C124.937 74.5301 126.191 76.1924 126.191 78.0597V93.813C126.191 94.8647 127.044 95.7173 128.096 95.7173C129.147 95.7173 130 94.8647 130 93.813V78.0597C130 74.5004 127.61 71.3319 124.189 70.3541ZM12.2167 66.9906C8.65465 65.7089 6.86791 64.0001 6.10518 63.067C6.62518 61.7076 6.96236 60.1506 7.19062 58.5071C8.24078 61.0251 9.99959 63.1747 12.2167 64.7083V66.9906ZM23.1258 72.1444C21.5015 73.6877 18.9571 73.6874 17.3334 72.1442L15.5624 70.4613C15.8613 69.9014 16.0255 69.2666 16.0255 68.6017V66.5719C17.354 66.9871 18.7662 67.211 20.2297 67.211C21.6915 67.211 23.1029 66.986 24.4337 66.5732L24.4334 68.6014C24.4334 69.2666 24.5974 69.9017 24.8965 70.4618L23.1258 72.1444ZM20.2302 63.4024C14.5438 63.4024 9.91783 58.7762 9.91783 53.09C9.91783 52.0383 9.06522 51.1857 8.01354 51.1857C7.90689 51.1857 7.80279 51.1966 7.70098 51.2137C7.70656 51.0499 7.71189 50.8859 7.71748 50.7236C7.75988 49.4142 7.80076 48.1774 7.87617 47.1166C8.11941 43.695 9.4867 40.542 11.7262 38.238C13.9857 35.9133 17.0056 34.6331 20.2297 34.6331C23.4538 34.6331 26.4735 35.9133 28.7333 38.238C30.9728 40.542 32.34 43.695 32.5833 47.1166C32.6584 48.1772 32.6996 49.4137 32.7427 50.7228C32.7465 50.8353 32.7504 50.9493 32.7542 51.0626C30.6823 47.8705 27.4826 45.518 23.3482 44.1896C19.5287 42.9625 16.2437 43.0384 16.105 43.0419C15.6063 43.0559 15.1331 43.2646 14.787 43.6236L11.3511 47.187C10.6212 47.9441 10.643 49.1497 11.4001 49.8796C12.1573 50.6096 13.3628 50.5875 14.0928 49.8306L16.9518 46.8658C19.4139 46.9861 27.335 47.9073 30.4157 54.6909C29.6405 59.6898 25.3439 63.4024 20.2302 63.4024ZM28.2417 66.997L28.242 64.7258C30.4573 63.2006 32.2187 61.055 33.2696 58.518C33.4979 60.1577 33.8348 61.7111 34.3538 63.0675C33.5953 63.9917 31.8002 65.7158 28.2417 66.997ZM46.5672 36.1032V31.3785C46.5672 31.0918 46.5024 30.8087 46.3778 30.5505C45.1524 28.013 44.5311 25.3205 44.5311 22.5479V18.4757C44.5311 10.544 50.9841 4.0912 58.9156 4.0912H85.5172V22.5481C85.5172 25.3208 84.8958 28.0132 83.6705 30.5508C83.5458 30.809 83.4811 31.0921 83.4811 31.3787V36.8009C83.4811 41.958 81.4079 46.7413 77.6435 50.2699C77.1735 50.7102 76.6858 51.123 76.1815 51.5077C76.1703 51.5153 76.1597 51.5237 76.1488 51.5315C72.6223 54.209 68.3028 55.5103 63.7919 55.218C54.1331 54.5926 46.5672 46.1965 46.5672 36.1032ZM57.2894 74.4204C57.2762 74.4336 57.2454 74.4649 57.1832 74.4583C57.1213 74.4522 57.0969 74.4159 57.0865 74.4001L51.1641 65.5164L53.07 63.5139L62.0544 69.6551L57.2894 74.4204ZM65.0241 67.0716L54.7117 60.0227V56.468C57.38 57.9104 60.3677 58.8125 63.5454 59.0182C64.0473 59.0507 64.5463 59.0667 65.0437 59.0667C68.6849 59.0667 72.1894 58.1963 75.3365 56.5442V60.0227L65.0241 67.0716ZM72.9617 74.4006C72.9513 74.4164 72.927 74.4527 72.865 74.4588C72.8028 74.4666 72.7723 74.4339 72.7589 74.4209L67.9938 69.6559L76.9783 63.5144L78.8844 65.5169L72.9617 74.4006ZM107.734 72.7939L103.413 68.4727C103.488 68.1302 103.531 67.7551 103.531 67.3415L103.531 66.5379C104.73 66.9315 105.994 67.1651 107.302 67.2042C107.448 67.2087 107.594 67.2108 107.74 67.2108C109.185 67.2108 110.596 66.9924 111.939 66.5757V67.3425C111.939 67.7224 111.986 68.0946 112.076 68.4524L107.734 72.7939ZM114.916 60.4911C112.897 62.4498 110.231 63.4842 107.416 63.3973C101.905 63.232 97.4221 58.3781 97.4221 52.5776V49.0176C97.4221 48.7218 97.3532 48.4303 97.221 48.166L96.0446 45.8133C95.6137 44.9513 95.386 43.9865 95.386 43.0226V42.9091C95.386 38.3454 99.0988 34.6328 103.662 34.6328H120.083V42.542C120.083 43.8202 119.781 45.1001 119.209 46.2434L118.248 48.166C118.116 48.4306 118.047 48.7218 118.047 49.0176V53.0898C118.047 55.903 116.935 58.5315 114.916 60.4911Z" fill="#3199DB"/>
</svg>
