<svg width="110" height="110" viewBox="0 0 110 110" fill="none" xmlns="http://www.w3.org/2000/svg">
<path d="M97.1094 24.0625C89.9885 24.0625 84.2188 29.8306 84.2188 36.9531V41.25H68.6829C73.8601 32.3961 76.4844 25.7561 76.4844 21.4844C76.4844 9.63776 66.8466 0 55 0C43.1534 0 33.5156 9.63776 33.5156 21.4844C33.5156 25.7561 36.1399 32.3969 41.3171 41.25C39.5732 41.25 27.2894 41.25 25.7812 41.25V36.9531C25.7812 29.8448 19.9989 24.0625 12.8906 24.0625C5.76973 24.0625 0 29.8306 0 36.9531V48.9844C0 50.1711 0.961761 51.1328 2.14844 51.1328C3.33511 51.1328 4.29688 50.1711 4.29688 48.9844V36.9531C4.29688 32.2064 8.14308 28.3594 12.8906 28.3594C17.6289 28.3594 21.4844 32.2148 21.4844 36.9531V87.5094C19.2025 85.4642 16.1888 84.2188 12.8906 84.2188C9.5916 84.2188 6.57959 85.4659 4.29688 87.5119V66.1719C4.29688 64.9852 3.33511 64.0234 2.14844 64.0234C0.961761 64.0234 0 64.9852 0 66.1719V97.1094C0 104.48 6.36307 110 13.5033 110H97.1094C104.218 110 110 104.218 110 97.1094V36.9531C110 29.8448 104.218 24.0625 97.1094 24.0625ZM88.5156 36.9531C88.5156 32.2064 92.3618 28.3594 97.1094 28.3594C101.848 28.3594 105.703 32.2148 105.703 36.9531V87.4506C104.226 86.1356 102.448 85.157 100.508 84.6568C96.2022 83.5432 91.7719 84.5914 88.5156 87.4993C88.5156 85.6622 88.5156 39.5321 88.5156 36.9531ZM84.2188 67.0312H56.7188C49.519 60.1756 35.7681 47.0785 34.161 45.5469H43.9213C48.6118 53.0396 53.2317 59.2306 53.2796 59.2952C53.6858 59.8373 54.3227 60.1562 55 60.1562C55.6773 60.1562 56.3142 59.8373 56.7204 59.2952C56.7683 59.2306 61.3891 53.0396 66.0787 45.5469H84.2188V67.0312ZM55 4.29688C64.4775 4.29688 72.1875 12.0069 72.1875 21.4844C72.1875 29.4613 59.604 47.9076 55 54.353C50.3238 47.8053 37.8125 29.3883 37.8125 21.4844C37.8125 12.0069 45.5225 4.29688 55 4.29688ZM4.29688 97.1094C4.29688 92.3711 8.15231 88.5156 12.8906 88.5156C17.6289 88.5156 21.4844 92.3711 21.4844 97.1094C21.4844 98.2961 22.4461 99.2578 23.6328 99.2578C24.8195 99.2578 25.7812 98.2961 25.7812 97.1094V61.3018L47.5879 82.0703L22.7734 105.703H13.5033C8.68523 105.703 4.29688 102.102 4.29688 97.1094ZM52.1844 83.6263C52.6107 83.2201 52.8516 82.6578 52.8516 82.0703C52.8516 81.4828 52.6107 80.9197 52.1844 80.5144L25.7812 55.3684V45.5469H27.9297C28.0766 45.687 53.3543 69.7613 54.3781 70.7356C54.7776 71.1158 55.308 71.3281 55.8594 71.3281H84.2188V79.9219H67.8906C67.3208 79.9219 66.7744 80.1485 66.3716 80.5513L41.2189 105.703H29.0039L52.1844 83.6263ZM97.1094 105.703H47.2967L68.7811 84.2188H84.2188V97.1094C84.2188 98.2961 85.1805 99.2578 86.3672 99.2578C87.5539 99.2578 88.5156 98.2961 88.5156 97.1094C88.5156 91.5528 93.7189 87.3407 99.4341 88.8169C102.923 89.7182 105.703 92.9401 105.703 97.1094C105.703 101.848 101.848 105.703 97.1094 105.703Z" fill="#93E237"/>
</svg>
