<svg width="125" height="125" viewBox="0 0 125 125" fill="none" xmlns="http://www.w3.org/2000/svg">
<g clip-path="url(#clip0)">
<path d="M37.5005 95.833V83.3329C37.4924 77.1875 33.0249 71.9567 26.9566 70.9869C30.5001 66.4545 29.6985 59.9081 25.1662 56.3646C20.6339 52.821 14.0874 53.6226 10.5439 58.1549C7.59671 61.9245 7.59671 67.2173 10.5439 70.9869C4.47558 71.9564 0.00807302 77.1875 0 83.3329V95.833C0.0039063 99.2831 2.80003 102.079 6.25008 102.083H8.33344V122.917C8.33344 124.067 9.26626 125 10.4168 125H27.0837C28.2342 125 29.167 124.067 29.167 122.917V102.083H31.2504C34.7004 102.079 37.4966 99.2831 37.5005 95.833ZM18.7502 58.3326C22.2021 58.3326 25.0003 61.1308 25.0003 64.5826C25.0003 68.0345 22.2021 70.8327 18.7502 70.8327C15.2984 70.8327 12.5002 68.0345 12.5002 64.5826C12.5041 61.1323 15.3002 58.3365 18.7502 58.3326ZM33.3337 95.833C33.3324 96.983 32.4004 97.9151 31.2504 97.9164H29.167V87.4996H25.0003V120.833H20.8336V106.25H16.6669V120.833H12.5002V87.4996H8.33344V97.9164H6.25008C5.10006 97.9151 4.16802 96.983 4.16672 95.833V83.3329C4.17193 78.7325 7.89984 75.0046 12.5002 74.9994H16.6669V83.3329H20.8336V74.9994H25.0003C29.6006 75.0046 33.3285 78.7325 33.3337 83.3329V95.833Z" fill="#EEA225"/>
<path d="M62.5008 95.833V83.3329C62.4928 77.1875 58.0253 71.9567 51.9569 70.9869C55.4901 66.4509 54.677 59.9094 50.141 56.3763C45.6051 52.8432 39.0636 53.6562 35.5304 58.1922C31.9973 62.7282 32.8104 69.2697 37.3464 72.8028C38.6141 73.79 40.093 74.4708 41.6672 74.7911V83.3329H45.834V74.9994H50.0007C54.601 75.0046 58.3289 78.7325 58.3341 83.3329V95.833C58.3328 96.983 57.4008 97.9151 56.2508 97.9164H54.1674V87.4996H50.0007V120.833H45.834V106.25H41.6672V120.833H37.5005V106.25H33.3338V122.917C33.3338 124.067 34.2666 125 35.4172 125H52.084C53.2346 125 54.1674 124.067 54.1674 122.917V102.083H56.2508C59.7008 102.079 62.4969 99.2831 62.5008 95.833ZM37.5005 64.5826C37.5005 61.1308 40.2987 58.3325 43.7506 58.3325C47.2025 58.3325 50.0007 61.1308 50.0007 64.5826C50.0007 68.0345 47.2025 70.8327 43.7506 70.8327C40.3006 70.8285 37.5044 68.0327 37.5005 64.5826Z" fill="#EEA225"/>
<path d="M106.695 18.3062C82.2872 -6.10163 42.7138 -6.10163 18.306 18.3065C6.58524 30.0272 0.00052084 45.9237 0 62.4995C0 64.6581 0.110418 66.8152 0.330473 68.9626L4.47532 68.5365C4.26958 66.5308 4.16672 64.5156 4.16672 62.4995C4.14771 53.2176 6.35399 44.0664 10.6009 35.8132L15.0989 40.9544C15.171 41.0367 15.2494 41.113 15.3333 41.1831L27.8334 51.5999C27.9884 51.729 28.161 51.835 28.3464 51.9145L34.5965 54.5931L36.2372 50.7631L30.2668 48.204L18.126 38.0872L12.7728 31.9673C15.1728 28.0777 18.0187 24.4813 21.2523 21.2511C22.4034 20.1003 23.5938 19.0049 24.8232 17.9651L27.1759 25.6118C27.3832 26.2855 27.917 26.8084 28.5946 27.0022L41.912 30.8064L43.7787 42.0076C43.8667 42.5365 44.155 43.011 44.5839 43.3326L52.6941 49.4152L67.1066 67.9451C67.716 68.7295 68.7946 68.9743 69.6826 68.5295L78.0161 64.3628C78.6554 64.043 79.0861 63.418 79.1572 62.7068L81.1885 42.3896L88.7553 31.0392L98.326 29.1254C98.6312 29.0644 98.9189 28.9358 99.1679 28.7491L105.995 23.6284C112.018 30.3288 116.393 38.3429 118.772 47.0326L113.345 52.459C110.102 45.0878 101.498 41.7411 94.1272 44.9839C88.8337 47.3126 85.4167 52.5496 85.4177 58.3328C85.4177 61.2252 86.2477 63.9445 87.4941 66.399L83.5039 80.3643L71.1842 98.8437C70.7978 99.4234 70.7264 100.158 70.9944 100.801L78.4281 118.641C73.2449 120.1 67.8855 120.838 62.5008 120.834C61.1596 120.834 59.8054 120.787 58.4757 120.697L58.1924 124.854C59.6161 124.951 61.0653 125 62.5008 125C97.0189 124.999 125.001 97.016 125 62.4979C124.999 45.9227 118.415 30.0267 106.695 18.3062ZM97.0457 25.1337L87.0925 27.124C86.5508 27.2324 86.0742 27.5516 85.7677 28.0113L77.4343 40.5114C77.2455 40.795 77.1291 41.1208 77.0957 41.4599L75.1267 61.1508L69.3477 64.0414L55.8127 46.6396C55.6991 46.4922 55.5661 46.361 55.4174 46.2493L47.7516 40.5L45.8058 28.8233C45.6735 28.0298 45.0964 27.3834 44.3229 27.1626L30.8259 23.3063L28.3337 15.2072C51.265 -1.35001 82.769 0.924238 103.085 20.6029L97.0457 25.1337ZM100.001 47.916C105.752 47.9225 110.412 52.5824 110.418 58.3328C110.418 65.7412 102.927 72.2441 99.9986 74.503C98.3101 73.202 96.7327 71.7631 95.2822 70.2011C92.6834 67.3852 89.5844 63.0404 89.5844 58.3328C89.591 52.5824 94.2509 47.9225 100.001 47.916ZM103.749 103.748C97.722 109.798 90.4358 114.446 82.4088 117.362L75.2694 100.228L87.1511 82.4055C87.2706 82.226 87.3618 82.0294 87.4209 81.8221L90.504 71.0319C92.9027 74.0077 95.7111 76.6288 98.8455 78.8163C99.5452 79.283 100.457 79.283 101.157 78.8163C101.705 78.451 114.585 69.7334 114.585 58.3328C114.585 57.9387 114.564 57.5497 114.533 57.1635L119.863 51.8337C120.51 55.3522 120.835 58.9221 120.835 62.4995C120.877 77.9788 114.725 92.8321 103.749 103.748Z" fill="#EEA225"/>
<path d="M100.001 64.5826C103.453 64.5826 106.251 61.7844 106.251 58.3325C106.251 54.8807 103.453 52.0825 100.001 52.0825C96.5494 52.0825 93.7512 54.8807 93.7512 58.3325C93.7551 61.7826 96.5513 64.5785 100.001 64.5826ZM100.001 56.2492C101.152 56.2492 102.085 57.182 102.085 58.3325C102.085 59.4831 101.152 60.4159 100.001 60.4159C98.8508 60.4159 97.9179 59.4831 97.9179 58.3325C97.9192 57.1825 98.8513 56.2505 100.001 56.2492Z" fill="#EEA225"/>
<path d="M64.5841 16.6653C61.1322 16.6653 58.334 19.4636 58.334 22.9154C58.334 26.3673 61.1322 29.1655 64.5841 29.1655C68.0359 29.1655 70.8342 26.3673 70.8342 22.9154C70.8302 19.4651 68.0341 16.6693 64.5841 16.6653ZM64.5841 24.9988C63.4335 24.9988 62.5007 24.066 62.5007 22.9154C62.5007 21.7649 63.4335 20.8321 64.5841 20.8321C65.7346 20.8321 66.6674 21.7649 66.6674 22.9154C66.6661 24.0654 65.7341 24.9975 64.5841 24.9988Z" fill="#EEA225"/>
<path d="M64.5843 8.33185C56.5336 8.34096 50.0098 14.8647 50.0007 22.9154C50.0007 34.316 62.8803 43.0336 63.4285 43.3989C64.1283 43.8656 65.0403 43.8656 65.74 43.3989C66.2882 43.0336 79.1678 34.316 79.1678 22.9154C79.1587 14.8647 72.6349 8.3407 64.5843 8.33185ZM64.5817 39.0856C62.8931 37.7846 61.3157 36.3457 59.8652 34.7837C57.2665 31.9678 54.1675 27.623 54.1675 22.9154C54.1675 17.1624 58.8313 12.4986 64.5843 12.4986C70.3372 12.4986 75.0011 17.1624 75.0011 22.9154C75.0011 30.3238 67.5103 36.8267 64.5817 39.0856Z" fill="#EEA225"/>
<path d="M81.251 97.9163H85.4177V102.083H81.251V97.9163Z" fill="#EEA225"/>
<path d="M100.001 87.4995H104.168V91.6662H100.001V87.4995Z" fill="#EEA225"/>
<path d="M66.6675 49.9991H70.8342V54.1658H66.6675V49.9991Z" fill="#EEA225"/>
<path d="M10.4167 47.9157H14.5835V52.0824H10.4167V47.9157Z" fill="#EEA225"/>
<path d="M35.4172 14.582H39.584V18.7487H35.4172V14.582Z" fill="#EEA225"/>
<path d="M87.501 16.6653H91.6677V20.8321H87.501V16.6653Z" fill="#EEA225"/>
</g>
<defs>
<clipPath id="clip0">
<rect width="125" height="125" fill="white"/>
</clipPath>
</defs>
</svg>
