<svg width="50" height="46" viewBox="0 0 50 46" fill="none" xmlns="http://www.w3.org/2000/svg">
<path d="M49.4565 40.9191H0.543478C0.244565 40.9191 0 41.1598 0 41.4539V45.4652C0 45.7593 0.244565 46 0.543478 46H49.4565C49.7554 46 50 45.7593 50 45.4652V41.4539C50 41.1598 49.7554 40.9191 49.4565 40.9191ZM16.5082 10.5475H21.5285V33.1641C21.5285 33.4582 21.7731 33.6989 22.072 33.6989H26.1481C26.447 33.6989 26.6916 33.4582 26.6916 33.1641V10.5475H31.7255C32.1807 10.5475 32.4321 10.0327 32.1535 9.68506L24.5448 0.205207C24.494 0.141283 24.429 0.0895848 24.3549 0.054031C24.2807 0.0184772 24.1993 0 24.1168 0C24.0344 0 23.953 0.0184772 23.8788 0.054031C23.8047 0.0895848 23.7397 0.141283 23.6889 0.205207L16.0802 9.67838C15.8016 10.0327 16.053 10.5475 16.5082 10.5475Z" fill="#3199DB"/>
</svg>
