<svg width="45" height="45" viewBox="0 0 45 45" fill="none" xmlns="http://www.w3.org/2000/svg">
<path d="M22.6515 16.8061C21.5553 16.8061 20.4838 17.1311 19.5723 17.7401C18.6609 18.3491 17.9505 19.2147 17.531 20.2275C17.1115 21.2402 17.0017 22.3546 17.2156 23.4298C17.4295 24.5049 17.9573 25.4924 18.7324 26.2676C19.5076 27.0427 20.4951 27.5706 21.5703 27.7844C22.6454 27.9983 23.7598 27.8885 24.7725 27.469C25.7853 27.0495 26.6509 26.3391 27.2599 25.4277C27.8689 24.5162 28.1939 23.4447 28.1939 22.3485C28.1939 21.6206 28.0506 20.8999 27.7721 20.2275C27.4935 19.5551 27.0853 18.9441 26.5706 18.4294C26.0559 17.9147 25.445 17.5065 24.7725 17.228C24.1001 16.9494 23.3794 16.8061 22.6515 16.8061ZM44.8436 11.3307C44.8318 9.60484 44.514 7.89476 43.9049 6.27992C43.4564 5.09827 42.7623 4.02517 41.8686 3.13144C40.9748 2.2377 39.9017 1.54365 38.7201 1.09508C37.1052 0.485999 35.3952 0.168197 33.6693 0.156439C30.7864 -1.49858e-07 29.9371 0 22.6515 0C15.3659 0 14.5167 -1.49858e-07 11.6337 0.156439C9.90788 0.168197 8.1978 0.485999 6.58296 1.09508C5.40131 1.54365 4.32821 2.2377 3.43448 3.13144C2.54074 4.02517 1.84669 5.09827 1.39812 6.27992C0.789038 7.89476 0.471236 9.60484 0.459479 11.3307C0.303039 14.2136 0.30304 15.0629 0.30304 22.3485C0.30304 29.6341 0.303039 30.4833 0.459479 33.3663C0.483535 35.0982 0.800906 36.8135 1.39812 38.4394C1.8447 39.6156 2.53818 40.6825 3.43183 41.5682C4.32173 42.4673 5.39713 43.1613 6.58296 43.6019C8.1978 44.211 9.90788 44.5288 11.6337 44.5405C14.5167 44.697 15.3659 44.697 22.6515 44.697C29.9371 44.697 30.7864 44.697 33.6693 44.5405C35.3952 44.5288 37.1052 44.211 38.7201 43.6019C39.9059 43.1613 40.9813 42.4673 41.8712 41.5682C42.7649 40.6825 43.4583 39.6156 43.9049 38.4394C44.5134 36.8166 44.8312 35.0993 44.8436 33.3663C45 30.4833 45 29.6341 45 22.3485C45 15.0629 45 14.2136 44.8436 11.3307ZM39.1671 29.2095C39.0953 30.5886 38.801 31.9471 38.2955 33.2322C37.8616 34.3042 37.2166 35.2781 36.3989 36.0958C35.5811 36.9136 34.6073 37.5586 33.5352 37.9924C32.2379 38.4698 30.8719 38.7339 29.4902 38.7746H15.8129C14.4311 38.7339 13.0651 38.4698 11.7678 37.9924C10.6596 37.5806 9.65873 36.9236 8.84016 36.0705C8.0304 35.2687 7.40504 34.3002 7.00759 33.2322C6.52834 31.9362 6.27144 30.5686 6.24774 29.1871V22.3485V15.5098C6.27144 14.1283 6.52834 12.7607 7.00759 11.4648C7.41943 10.3565 8.07646 9.35569 8.92955 8.53712C9.73485 7.73173 10.7024 7.10703 11.7678 6.70455C13.0651 6.22719 14.4311 5.96304 15.8129 5.92235H29.4902C30.8719 5.96304 32.2379 6.22719 33.5352 6.70455C34.6435 7.11639 35.6443 7.77342 36.4629 8.62652C37.2726 9.42826 37.898 10.3968 38.2955 11.4648C38.7728 12.7621 39.037 14.1281 39.0777 15.5098V22.3485C39.0777 26.9523 39.2341 27.4216 39.1671 29.1871V29.2095ZM35.5913 12.5822C35.3252 11.8603 34.9057 11.2047 34.3617 10.6607C33.8176 10.1167 33.1621 9.69715 32.4402 9.43106C31.4489 9.08747 30.405 8.92105 29.3561 8.93939H15.947C14.8927 8.9497 13.8486 9.14642 12.8629 9.52046C12.152 9.77446 11.5034 10.1769 10.9601 10.7009C10.4168 11.2249 9.99124 11.8586 9.71175 12.5598C9.3872 13.5552 9.22864 14.5971 9.24243 15.6439V29.053C9.26459 30.1061 9.46093 31.1482 9.82349 32.1371C10.0896 32.859 10.5091 33.5146 11.0531 34.0586C11.5972 34.6026 12.2527 35.0222 12.9746 35.2883C13.9282 35.6389 14.9316 35.8351 15.947 35.8693H29.3561C30.4103 35.859 31.4544 35.6623 32.4402 35.2883C33.1621 35.0222 33.8176 34.6026 34.3617 34.0586C34.9057 33.5146 35.3252 32.859 35.5913 32.1371C35.9653 31.1514 36.1621 30.1073 36.1724 29.053V22.3485V15.6439C36.173 14.5886 35.9759 13.5426 35.5913 12.5598V12.5822ZM22.6515 30.8856C21.5315 30.8856 20.4224 30.6646 19.3879 30.2353C18.3534 29.806 17.4137 29.1768 16.6228 28.3838C15.8318 27.5908 15.2051 26.6495 14.7785 25.6138C14.3519 24.5782 14.1338 23.4685 14.1368 22.3485C14.1368 20.6591 14.638 19.0076 15.5771 17.6032C16.5161 16.1988 17.8508 15.1046 19.412 14.4591C20.9733 13.8136 22.691 13.6459 24.3476 13.9771C26.0043 14.3083 27.5254 15.1236 28.7184 16.3198C29.9115 17.5159 30.7228 19.0392 31.0497 20.6967C31.3766 22.3542 31.2043 24.0715 30.5547 25.631C29.9051 27.1906 28.8074 28.5223 27.4006 29.4577C25.9937 30.3931 24.341 30.89 22.6515 30.8856ZM31.5909 15.4875C31.0969 15.4352 30.6397 15.2019 30.3074 14.8326C29.9751 14.4633 29.7913 13.9841 29.7913 13.4873C29.7913 12.9905 29.9751 12.5113 30.3074 12.142C30.6397 11.7727 31.0969 11.5394 31.5909 11.4871C32.0849 11.5394 32.5421 11.7727 32.8744 12.142C33.2067 12.5113 33.3906 12.9905 33.3906 13.4873C33.3906 13.9841 33.2067 14.4633 32.8744 14.8326C32.5421 15.2019 32.0849 15.4352 31.5909 15.4875Z" fill="white"/>
</svg>
