<svg width="45" height="45" viewBox="0 0 45 45" fill="none" xmlns="http://www.w3.org/2000/svg">
<path d="M42.9091 0H1.78788C0.798958 0 0 0.798958 0 1.78788V42.9091C0 43.898 0.798958 44.697 1.78788 44.697H42.9091C43.898 44.697 44.697 43.898 44.697 42.9091V1.78788C44.697 0.798958 43.898 0 42.9091 0ZM37.7466 13.0459H34.1764C31.3773 13.0459 30.8353 14.3757 30.8353 16.3312V20.6388H37.5175L36.6459 27.3825H30.8353V44.697H23.8682V27.3881H18.0408V20.6388H23.8682V15.6663C23.8682 9.89479 27.3937 6.74924 32.545 6.74924C35.0145 6.74924 37.132 6.93362 37.7522 7.01742V13.0459H37.7466Z" fill="white"/>
</svg>
